<svg id="b6d65410-2789-4e37-a4e0-8b85643a924e" data-name="Layer 1" xmlns="http://www.w3.org/2000/svg" xmlns:xlink="http://www.w3.org/1999/xlink" viewBox="0 0 249.34 43.6"><defs><style>.f6911763-223d-4bad-b86f-82a5f0609384{fill:url(#bc6f76d3-e8b7-4ea4-9719-692a2dac7353);}.f8adff17-4430-4863-9a3c-724fbca85d53{fill:url(#fd502418-e1be-4cf5-95fa-1412f9db1fe7);}.a8662fc4-0d64-45bd-b491-b08b2ccbede6{fill:url(#a08a931d-58bf-4f75-8fb8-b9918027e7e8);}.a32832a6-5496-4afe-b250-2f5fbb6ab573{fill:url(#a5a274ce-5385-4a28-8d9b-fb6d08aa9d64);}.e68d97cc-ccbc-4d7c-9431-077b16bcde6a{opacity:0.9;font-size:8.3px;font-family:Kontora-SemiBold, Kontora;font-weight:600;letter-spacing:0.5em;}.f0daa397-9ce4-4d62-9f7a-6bc9438a23f0{letter-spacing:0.46em;}.f961247d-6ec3-4ba3-b0db-561ebfce5211{font-size:17.3px;font-family:Kontora-ExtraBlack, Kontora;font-weight:900;letter-spacing:0.05em;}.adf79e3f-0d26-45a4-9429-356ce252b070{letter-spacing:0.01em;}.fe431a7e-08b1-4472-a985-b39e4b9bf2ef{letter-spacing:0.05em;}.f0fd6023-6b77-408d-a1e4-c2561f5d9ba6{letter-spacing:0.05em;}.ac610d4f-b48c-42d7-8a27-2508a7f3b1d3{letter-spacing:0.03em;}</style><linearGradient id="bc6f76d3-e8b7-4ea4-9719-692a2dac7353" x1="40.84" y1="7.1" x2="40.84" y2="40.08" gradientUnits="userSpaceOnUse"><stop offset="0" stop-color="#fcb813"/><stop offset="1" stop-color="#e55f25"/></linearGradient><linearGradient id="fd502418-e1be-4cf5-95fa-1412f9db1fe7" x1="44.15" y1="7.36" x2="44.15" y2="31.78" xlink:href="#bc6f76d3-e8b7-4ea4-9719-692a2dac7353"/><linearGradient id="a08a931d-58bf-4f75-8fb8-b9918027e7e8" x1="48.96" y1="7.27" x2="48.96" y2="25.76" xlink:href="#bc6f76d3-e8b7-4ea4-9719-692a2dac7353"/><linearGradient id="a5a274ce-5385-4a28-8d9b-fb6d08aa9d64" x1="34.97" y1="7.24" x2="34.97" y2="50.69" xlink:href="#bc6f76d3-e8b7-4ea4-9719-692a2dac7353"/></defs><path class="f6911763-223d-4bad-b86f-82a5f0609384" d="M56.81,38.21c-18.59,0-33.67-7.52-33.67-16.81,0-6,6.38-11.34,16-14.3C25.18,9.16,15,15.61,15,23.24c0,9.3,15.07,16.84,33.67,16.84a60.17,60.17,0,0,0,18-2.6A65,65,0,0,1,56.81,38.21Z" transform="translate(-1.2 -7.1)"/><path class="f8adff17-4430-4863-9a3c-724fbca85d53" d="M56.15,30.4C43,30.4,32.39,24.84,32.39,18c0-4.51,4.6-8.46,11.49-10.63-10.21,1.39-17.75,6.24-17.75,12,0,6.85,10.64,12.41,23.77,12.41A41.18,41.18,0,0,0,62.17,30,45,45,0,0,1,56.15,30.4Z" transform="translate(-1.2 -7.1)"/><path class="a8662fc4-0d64-45bd-b491-b08b2ccbede6" d="M58.28,24.71C48,24.71,39.72,20.5,39.72,15.3c0-3.4,3.56-6.38,8.91-8C40.69,8.34,34.85,12,34.85,16.36c0,5.19,8.31,9.4,18.56,9.4a33,33,0,0,0,9.66-1.37A35.24,35.24,0,0,1,58.28,24.71Z" transform="translate(-1.2 -7.1)"/><path class="a32832a6-5496-4afe-b250-2f5fbb6ab573" d="M55.52,48C31.6,48,12.21,38.14,12.21,26c0-7.92,8.22-14.86,20.56-18.74C14.55,9.87,1.2,18.41,1.2,28.55c0,12.23,19.43,22.14,43.4,22.14A75.51,75.51,0,0,0,68.73,47,82.16,82.16,0,0,1,55.52,48Z" transform="translate(-1.2 -7.1)"/><text class="e68d97cc-ccbc-4d7c-9431-077b16bcde6a" transform="translate(73.8 41.24)">THE LIFE CHANGE<tspan class="f0daa397-9ce4-4d62-9f7a-6bc9438a23f0" x="129.6" y="0">R</tspan><tspan x="138.41" y="0">S</tspan></text><text class="f961247d-6ec3-4ba3-b0db-561ebfce5211" transform="translate(71.82 30.78)">WINT<tspan class="adf79e3f-0d26-45a4-9429-356ce252b070" x="48.77" y="0">E</tspan><tspan class="fe431a7e-08b1-4472-a985-b39e4b9bf2ef" x="59.1" y="0">CH </tspan><tspan class="f0fd6023-6b77-408d-a1e4-c2561f5d9ba6" x="91.5" y="0">B</tspan><tspan x="102.59" y="0">UILDE</tspan><tspan class="ac610d4f-b48c-42d7-8a27-2508a7f3b1d3" x="154.82" y="0">R</tspan><tspan class="fe431a7e-08b1-4472-a985-b39e4b9bf2ef" x="166.32" y="0">S</tspan></text></svg>