<svg xmlns="http://www.w3.org/2000/svg" width="400" height="109.043" viewBox="0 0 400 109.043"><defs><style>.a{fill:#101010;font-size:30px;font-family:HackerNoonV1-Regular, Hacker Noon V1;}.b{fill:#141414;}.c,.d{fill:none;stroke:#141414;stroke-miterlimit:10;}.c{stroke-width:2.761px;}.d{stroke-width:3.106px;}</style></defs><g transform="translate(-344 -102.957)"><text class="a" transform="translate(344 206)"><tspan x="0" y="0">the shadow brokers</tspan></text><g transform="translate(514.02 104.39)"><circle class="b" cx="9.356" cy="9.356" r="9.356" transform="translate(25.592 25.592)"/><path class="c" d="M397.721,410.464c2.857,0,5.634-.082,8.289-.242-.908,15.3-4.274,26.659-8.289,26.659s-7.38-11.36-8.288-26.659C392.088,410.381,394.865,410.464,397.721,410.464Z" transform="translate(-362.774 -366.985)"/><path class="c" d="M397.721,382.418c-2.856,0-5.633.083-8.288.243.908-15.3,4.273-26.659,8.288-26.659s7.381,11.36,8.289,26.659C403.355,382.5,400.579,382.418,397.721,382.418Z" transform="translate(-362.774 -356)"/><path class="c" d="M402.556,409.806a103.462,103.462,0,0,0,13.6-1.638c-1.979,16.12-11.024,28.3-21.885,28.3s-19.907-12.177-21.884-28.3a103.465,103.465,0,0,0,13.6,1.638c2.655.159,5.432.242,8.288.242S399.9,409.966,402.556,409.806Z" transform="translate(-359.319 -366.569)"/><path class="c" d="M385.976,382.659a103.61,103.61,0,0,0-13.6,1.637c1.982-16.119,11.025-28.3,21.887-28.3s19.907,12.177,21.885,28.3a103.613,103.613,0,0,0-13.6-1.637c-2.655-.159-5.432-.243-8.289-.243S388.634,382.5,385.976,382.659Z" transform="translate(-359.319 -356)"/><circle class="d" cx="34.966" cy="34.966" r="34.966" transform="translate(0.12 0.12)"/><ellipse class="c" cx="34.948" cy="22.29" rx="34.948" ry="22.29" transform="translate(0 12.659)"/><path class="c" d="M425.9,397.66c0,2.689-5.1,5.089-13.061,6.651a103.458,103.458,0,0,1-13.6,1.638c-2.655.159-5.432.242-8.289.242s-5.633-.082-8.288-.242a103.448,103.448,0,0,1-13.6-1.638C361.1,402.747,356,400.348,356,397.66s5.1-5.088,13.061-6.651a103.617,103.617,0,0,1,13.6-1.637c2.655-.159,5.432-.243,8.288-.243s5.634.083,8.289.243a103.6,103.6,0,0,1,13.6,1.637C420.8,392.572,425.9,394.971,425.9,397.66Z" transform="translate(-356 -362.711)"/></g></g></svg>