<svg id="e125cbb3-0d7f-4354-89e6-8ea593eaaf3a" data-name="Layer 1" xmlns="http://www.w3.org/2000/svg" viewBox="0 0 396.18 105.95"><g style="isolation:isolate"><g style="isolation:isolate"><path d="M1.5,89.24V84.92h21v4.32H14V106H9.84V89.24Z" transform="translate(-1.5 0)" fill="#101010"/><path d="M25.53,105.8v-21H29.7v8.49H42.24V84.77h4.17v21H42.24V97.43H29.7v8.37Z" transform="translate(-1.5 0)" fill="#101010"/><path d="M49.41,106v-21h21v4.32H53.73v4.17H62.1v4.2H53.73v4.17H70.44V106Z" transform="translate(-1.5 0)" fill="#101010"/><path d="M80.94,97.61V84.92h21v4.32H85.11v4.17H102V106h-21v-4.17H97.65V97.61Z" transform="translate(-1.5 0)" fill="#101010"/><path d="M105,105.8v-21h4.17v8.49h12.54V84.77h4.17v21h-4.17V97.43H109.14v8.37Z" transform="translate(-1.5 0)" fill="#101010"/><path d="M128.85,106v-21h21V105.8h-4.17V97.43H133.17V106Zm16.86-12.69V89.09H133.17v4.17Z" transform="translate(-1.5 0)" fill="#101010"/><path d="M152.88,89.24V84.92h21v21h-21v-4.17h4.32V89.24Zm16.86,12.54V89.24H161.4v12.54Z" transform="translate(-1.5 0)" fill="#101010"/><path d="M176.91,105.8v-21h21v21Zm16.86-4.17V89.09H181.23v12.54Z" transform="translate(-1.5 0)" fill="#101010"/><path d="M200.94,105.8v-21h4.32v16.86h4.2V84.77h4.17v16.86h4.17V84.77H222v21Z" transform="translate(-1.5 0)" fill="#101010"/><path d="M232.47,105.8v-21h16.86v8.49h4.17V105.8Zm12.69-12.54V89.09h-8.37v4.17Zm4.17,8.37v-4.2H236.79v4.2Z" transform="translate(-1.5 0)" fill="#101010"/><path d="M256.5,106v-21h21V97.61h-4.32v4.17h4.32V106h-4.32v-4.17H269V97.61h-8.37V106Zm16.71-12.54V89.24H260.67v4.17Z" transform="translate(-1.5 0)" fill="#101010"/><path d="M280.53,105.8v-21h21v21Zm16.86-4.17V89.09H284.85v12.54Z" transform="translate(-1.5 0)" fill="#101010"/><path d="M304.56,106v-21h4.32v8.49h8.37V89.24h4.17v4.17h-4.17v4.2h-8.37V106Zm12.69-8.34h4.17v4.17h4.17V106h-4.17v-4.17h-4.17Zm4.17-8.37V84.92h4.17v4.32Z" transform="translate(-1.5 0)" fill="#101010"/><path d="M328.59,106v-21h21v4.32H332.91v4.17h8.37v4.2h-8.37v4.17h16.71V106Z" transform="translate(-1.5 0)" fill="#101010"/><path d="M352.62,106v-21h21V97.61h-4.32v4.17h4.32V106h-4.32v-4.17h-4.17V97.61h-8.37V106Zm16.71-12.54V89.24H356.79v4.17Z" transform="translate(-1.5 0)" fill="#101010"/><path d="M376.65,97.61V84.92h21v4.32H380.82v4.17h16.86V106h-21v-4.17h16.71V97.61Z" transform="translate(-1.5 0)" fill="#101010"/></g></g><circle cx="203.47" cy="36.38" r="9.36" fill="#141414"/><path d="M205,44.91c2.85,0,5.63-.08,8.29-.24C212.35,60,209,71.33,205,71.33S197.59,60,196.68,44.67C199.33,44.83,202.11,44.91,205,44.91Z" transform="translate(-1.5 0)" fill="none" stroke="#141414" stroke-miterlimit="10" stroke-width="2.76"/><path d="M205,27.85c-2.86,0-5.64.08-8.29.24C197.59,12.79,201,1.44,205,1.44s7.38,11.35,8.29,26.65C210.6,27.93,207.83,27.85,205,27.85Z" transform="translate(-1.5 0)" fill="none" stroke="#141414" stroke-miterlimit="10" stroke-width="2.76"/><path d="M213.26,44.67A102.19,102.19,0,0,0,226.86,43c-2,16.12-11,28.3-21.89,28.3S185.07,59.15,183.09,43a101.79,101.79,0,0,0,13.6,1.64c2.65.16,5.43.24,8.29.24S210.6,44.83,213.26,44.67Z" transform="translate(-1.5 0)" fill="none" stroke="#141414" stroke-miterlimit="10" stroke-width="2.76"/><path d="M196.68,28.09a103.46,103.46,0,0,0-13.6,1.64c2-16.12,11-28.3,21.88-28.3s19.91,12.18,21.89,28.3a103.66,103.66,0,0,0-13.6-1.64c-2.66-.16-5.43-.24-8.29-.24S199.34,27.93,196.68,28.09Z" transform="translate(-1.5 0)" fill="none" stroke="#141414" stroke-miterlimit="10" stroke-width="2.76"/><circle cx="203.61" cy="36.52" r="34.97" fill="none" stroke="#141414" stroke-miterlimit="10" stroke-width="3.11"/><ellipse cx="203.47" cy="36.38" rx="34.95" ry="22.29" fill="none" stroke="#141414" stroke-miterlimit="10" stroke-width="2.76"/><path d="M239.92,36.38c0,2.69-5.1,5.09-13.06,6.65a102,102,0,0,1-13.6,1.64c-2.66.16-5.43.24-8.29.24s-5.63-.08-8.29-.24A102,102,0,0,1,183.08,43c-8-1.56-13.06-4-13.06-6.65s5.1-5.09,13.06-6.65a105.39,105.39,0,0,1,13.6-1.64c2.66-.15,5.43-.24,8.29-.24s5.63.08,8.29.24a105.39,105.39,0,0,1,13.6,1.64C234.82,31.29,239.92,33.69,239.92,36.38Z" transform="translate(-1.5 0)" fill="none" stroke="#141414" stroke-miterlimit="10" stroke-width="2.76"/></svg>